<svg 
    viewBoxSize="575" 
    data-root-id="7577264935892" 
    xmlns="http://www.w3.org/2000/svg" 
    viewBox="1.4137001037597656 1.4140262603759766 178.30905151367188 114.30872344970703" 
    fill="none" height="100.0070068359375"
     width="156" 
     y="237.49650421142576" 
     x="85.44830322265625" 
     preserveAspectRatio="xMinYMin" 
     zoom="1" editorType="buyer" 
     data-layer-role="icon" 
     style="position: absolute; height: 100.007px; width: 156px; top: 237.497px; left: 85.4483px;">
<path 
opacity="0.2" 
fill-rule="evenodd" 
clip-rule="evenodd" 
d="M115.137 57.1541C115.918 57.9352 115.918 59.2015 115.137 59.9826L59.9822 115.137C59.2012 115.918 57.9349 115.918 57.1538 115.137L1.99948 59.9826C1.21844 59.2015 1.21844 57.9352 1.99948 57.1541L57.1538 1.99981C57.9349 1.21876 59.2012 1.21877 59.9822 1.99981L115.137 57.1541ZM58.568 113.723L113.722 58.5684L58.568 3.41403L3.4137 58.5683L58.568 113.723Z" 
fill="#D1B389" name="Layer %{number}" zoom="1" data-layer-id="1221474735922" style="fill: rgb(255, 255, 255); fill-opacity: 1;"></path><path opacity="0.5" fill-rule="evenodd" clip-rule="evenodd" d="M147.137 57.1541C147.918 57.9352 147.918 59.2015 147.137 59.9826L91.9822 115.137C91.2012 115.918 89.9349 115.918 89.1538 115.137L33.9995 59.9826C33.2184 59.2015 33.2184 57.9352 33.9995 57.1541L89.1538 1.99981C89.9349 1.21876 91.2012 1.21877 91.9822 1.99981L147.137 57.1541ZM90.568 113.723L145.722 58.5684L90.568 3.41403L35.4137 58.5683L90.568 113.723Z" fill="#D1B389" name="Layer %{number}" zoom="1" data-layer-id="1762837735937" style="fill: rgb(255, 255, 255); fill-opacity: 1;"></path><path fill-rule="evenodd" clip-rule="evenodd" d="M179.137 57.1541C179.918 57.9352 179.918 59.2015 179.137 59.9826L123.982 115.137C123.201 115.918 121.935 115.918 121.154 115.137L65.9995 59.9826C65.2184 59.2015 65.2184 57.9352 65.9995 57.1541L121.154 1.99981C121.935 1.21876 123.201 1.21877 123.982 1.99981L179.137 57.1541ZM122.568 113.723L177.722 58.5684L122.568 3.41403L67.4137 58.5683L122.568 113.723Z" fill="#D1B389" name="Layer %{number}" zoom="1" data-layer-id="4621782835952" style="fill: rgb(255, 255, 255); fill-opacity: 1;"></path></svg>